<svg width="22" height="23" viewBox="0 0 22 23" fill="none" xmlns="http://www.w3.org/2000/svg">
<path fill-rule="evenodd" clip-rule="evenodd" d="M9.16658 17.1239C5.1165 17.1239 1.83325 13.8407 1.83325 9.79061C1.83325 5.74052 5.1165 2.45728 9.16658 2.45728C13.2167 2.45728 16.4999 5.74052 16.4999 9.79061C16.4999 11.4853 15.9251 13.0456 14.9598 14.2874L19.8981 19.2257L18.6017 20.5221L13.6634 15.5838C12.4216 16.5491 10.8612 17.1239 9.16658 17.1239ZM14.6666 9.79064C14.6666 12.8282 12.2042 15.2906 9.16659 15.2906C6.12902 15.2906 3.66659 12.8282 3.66659 9.79064C3.66659 6.75307 6.12902 4.29064 9.16659 4.29064C12.2042 4.29064 14.6666 6.75307 14.6666 9.79064Z" fill="#3D4241"/>
</svg>
